{
  "accessors": [
    {
      "bufferView": 2,
      "componentType": 5126,
      "count": 3063,
      "max": [
        1.2661499977111816,
        1.6965600252151489,
        1.7970499992370605
      ],
      "min": [
        -1.3026399612426758,
        -1.6965600252151489,
        -1.6673400402069092
      ],
      "type": "VEC3"
    },
    {
      "bufferView": 2,
      "byteOffset": 36756,
      "componentType": 5126,
      "count": 3063,
      "max": [
        1,
        1,
        1
      ],
      "min": [
        -1,
        -1,
        -1
      ],
      "type": "VEC3"
    },
    {
      "bufferView": 3,
      "componentType": 5126,
      "count": 3063,
      "max": [
        1,
        1,
        1,
        1
      ],
      "min": [
        -1,
        -1,
        -1,
        -1
      ],
      "type": "VEC4"
    },
    {
      "bufferView": 1,
      "componentType": 5126,
      "count": 3063,
      "max": [
        0.99656999111175537,
        0.97671997547149658
      ],
      "min": [
        0.02044999971985817,
        0.0070500001311302185
      ],
      "type": "VEC2"
    },
    {
      "bufferView": 0,
      "componentType": 5125,
      "count": 8160,
      "max": [
        3062
      ],
      "min": [
        0
      ],
      "type": "SCALAR"
    }
  ],
  "asset": {
    "extras": {
      "author": "3DHaupt (https://sketchfab.com/dennish2010)",
      "license": "CC-BY-4.0 (http://creativecommons.org/licenses/by/4.0/)",
      "source": "https://sketchfab.com/models/hh6HI5dnOK2IOfERAPHJF7OhZRy",
      "title": "Garbage container"
    },
    "generator": "Sketchfab-3.28.5",
    "version": "2.0"
  },
  "bufferViews": [
    {
      "buffer": 0,
      "byteLength": 32640,
      "byteOffset": 0,
      "name": "floatBufferViews",
      "target": 34963
    },
    {
      "buffer": 0,
      "byteLength": 24504,
      "byteOffset": 32640,
      "byteStride": 8,
      "name": "floatBufferViews",
      "target": 34962
    },
    {
      "buffer": 0,
      "byteLength": 73512,
      "byteOffset": 57144,
      "byteStride": 12,
      "name": "floatBufferViews",
      "target": 34962
    },
    {
      "buffer": 0,
      "byteLength": 49008,
      "byteOffset": 130656,
      "byteStride": 16,
      "name": "floatBufferViews",
      "target": 34962
    }
  ],
  "buffers": [
    {
      "byteLength": 179664,
      "uri": "scene.bin"
    }
  ],
  "images": [
    {
      "uri": "textures/Material.204_baseColor.jpeg"
    }
  ],
  "materials": [
    {
      "doubleSided": true,
      "name": "Material.204",
      "pbrMetallicRoughness": {
        "baseColorFactor": [
          0.79000000000000004,
          0.79000000000000004,
          0.79000000000000004,
          1
        ],
        "baseColorTexture": {
          "index": 0,
          "texCoord": 0
        },
        "metallicFactor": 0.55000000000000004,
        "roughnessFactor": 0.87
      }
    }
  ],
  "meshes": [
    {
      "name": "Cube.144_0",
      "primitives": [
        {
          "attributes": {
            "NORMAL": 1,
            "POSITION": 0,
            "TANGENT": 2,
            "TEXCOORD_0": 3
          },
          "indices": 4,
          "material": 0,
          "mode": 4
        }
      ]
    }
  ],
  "nodes": [
    {
      "children": [
        1
      ],
      "name": "RootNode (gltf orientation matrix)",
      "rotation": [
        -0.70710678118654746,
        -0,
        -0,
        0.70710678118654757
      ]
    },
    {
      "children": [
        2
      ],
      "name": "RootNode (model correction matrix)"
    },
    {
      "children": [
        3
      ],
      "name": "Root"
    },
    {
      "children": [
        4
      ],
      "matrix": [
        0.99987000000000004,
        -0.016140000000000002,
        0,
        0,
        0.016140000000000002,
        0.99987000000000004,
        0,
        0,
        0,
        0,
        1,
        0,
        -0.00084000000000000025,
        -0.0010800000000000002,
        1.69506,
        1
      ],
      "name": "Cube.144"
    },
    {
      "mesh": 0,
      "name": "Cube.144_0"
    }
  ],
  "samplers": [
    {
      "magFilter": 9729,
      "minFilter": 9987,
      "wrapS": 10497,
      "wrapT": 10497
    }
  ],
  "scene": 0,
  "scenes": [
    {
      "name": "OSG_Scene",
      "nodes": [
        0
      ]
    }
  ],
  "textures": [
    {
      "sampler": 0,
      "source": 0
    }
  ]
}

